# xmcd
#
# Track frame offsets: 
#        150
#        14159
#        24922
#        43159
#        54264
#        65731
#        76600
#        93506
#        113614
#        128141
#        143054
#        154307
#        167115
#
# Disc length: 2466 seconds
#
# Revision: 0
# Processed by: cddbd v1.5.2PL0 Copyright (c) Steve Scherf et al.
# Submitted via: ExactAudioCopy v0.90b4
#
DISCID=a609a00d
DTITLE=Retread - Bluegrass Demo
DYEAR=2006
DGENRE=Bluegrass
TTITLE0=Gone Gone Gone
TTITLE1=Head Over Heals
TTITLE2=Down Where The River Bends
TTITLE3=Road to Columbus
TTITLE4=Hello Mary Lou
TTITLE5=One Step Ahead of the Blues
TTITLE6=Orange Blossom Special
TTITLE7=All The Good Times
TTITLE8=You Can Have Her
TTITLE9=Just Like You
TTITLE10=Love Please Come Home
TTITLE11=Ernest T. Grass
TTITLE12=Remington Ride
EXTD=
EXTT0=
EXTT1=
EXTT2=
EXTT3=
EXTT4=
EXTT5=
EXTT6=
EXTT7=
EXTT8=
EXTT9=
EXTT10=
EXTT11=
EXTT12=
PLAYORDER=
